<?xml version="1.0" encoding="UTF-8"?><svg id="Layer_1" xmlns="http://www.w3.org/2000/svg" viewBox="-20 -20 220 200"><path d="M134.48,17.47c2.38,0,4.31,1.93,4.31,4.31v15.5c0,1.39,1.13,2.53,2.53,2.53h11.69c5.26,0,9.52,4.26,9.52,9.52v83.67c0,5.26-4.26,9.52-9.52,9.52H27.62c-5.26,0-9.52-4.26-9.52-9.52V49.33c0-5.26,2.8-9.52,8.06-9.52h13.05c1.39,0,2.53-1.13,2.53-2.53v-15.39c0-2.38,1.93-4.31,4.31-4.31h21.69c2.38,0,4.31,1.93,4.31,4.31v15.39c0,1.39,1.13,2.53,2.53,2.53h31.39c1.39,0,2.53-1.13,2.53-2.53v-15.5c0-2.38,1.93-4.31,4.31-4.31h21.69" style="fill:#fff;"/><path d="M154.05,36.61l-11.46-.21c-1.39,0-2.08-16.04-2.08-16.04,0-2.38-2.83-5.97-5.21-5.97h-30.21l-12.02,91.75-76.75,38.41,137.53.63c5.26,0,11.25-4.36,11.25-9.62V49.53c0-5.26-5.79-12.92-11.04-12.92Z" style="fill:#e6e6e6;"/><path d="M134.48,17.47c2.38,0,4.31,1.93,4.31,4.31v15.5c0,1.39,1.13,2.53,2.53,2.53h11.69c5.26,0,9.52,4.26,9.52,9.52v83.67c0,5.26-4.26,9.52-9.52,9.52H27.62c-5.26,0-9.52-4.26-9.52-9.52V49.33c0-5.26,2.8-9.52,8.06-9.52h13.05c1.39,0,2.53-1.13,2.53-2.53v-15.39c0-2.38,1.93-4.31,4.31-4.31h21.69c2.38,0,4.31,1.93,4.31,4.31v15.39c0,1.39,1.13,2.53,2.53,2.53h31.39c1.39,0,2.53-1.13,2.53-2.53v-15.5c0-2.38,1.93-4.31,4.31-4.31h21.69M134.48,7.37h-21.69c-7.96,0-14.41,6.45-14.41,14.41v7.93h-16.24v-7.81c0-7.96-6.45-14.41-14.41-14.41h-21.69c-7.96,0-14.41,6.45-14.41,14.41v7.81h-5.47c-10.84,0-18.16,8.79-18.16,19.62v83.67c0,10.84,8.79,19.62,19.62,19.62h125.39c10.84,0,19.62-8.79,19.62-19.62V49.33c0-10.84-8.79-19.62-19.62-19.62h-4.11v-7.93c0-7.95-6.47-14.41-14.41-14.41h0Z"/><path d="M64.11,68.88v46.67c0,5.46-4.43,9.89-9.89,9.89h0c-5.46,0-9.89-4.43-9.89-9.89v-46.67c0-5.46,4.43-9.89,9.89-9.89h0c5.46,0,9.89,4.43,9.89,9.89ZM90.66,80.17h0c-5.46,0-9.89,4.43-9.89,9.89v25.48c0,5.46,4.43,9.89,9.89,9.89h0c5.46,0,9.89-4.43,9.89-9.89v-25.48c0-5.46-4.43-9.89-9.89-9.89ZM126.42,94.76h0c-5.46,0-9.89,4.43-9.89,9.89v10.89c0,5.46,4.43,9.89,9.89,9.89h0c5.46,0,9.89-4.43,9.89-9.89v-10.89c0-5.46-4.43-9.89-9.89-9.89Z"/></svg>